HIERARCHY
ROOT Hips
{
	OFFSET 0.00 0.00 0.00
	CHANNELS 6 Xposition Yposition Zposition Xrotation Yrotation Zrotation
	JOINT LeftUpLeg
	{
		OFFSET 2.94355 0.00000 0.00000
		CHANNELS 3 Xrotation Yrotation Zrotation
		JOINT LeftLeg
		{
			OFFSET 0.00000 -16.73768 0.00000
			CHANNELS 3 Xrotation Yrotation Zrotation
			JOINT LeftFoot
			{
				OFFSET 0.00000 -15.48883 0.00000
				CHANNELS 3 Xrotation Yrotation Zrotation
				JOINT LeftToeBase
				{
					OFFSET 0.00000 -1.60986 6.00809
					CHANNELS 3 Xrotation Yrotation Zrotation
					End Site
					{
						OFFSET 0.00000 0.00000 2.95275
					}
				}
			}
		}
	}
	JOINT RightUpLeg
	{
		OFFSET -2.94355 0.00000 0.00000
		CHANNELS 3 Xrotation Yrotation Zrotation
		JOINT RightLeg
		{
			OFFSET 0.00000 -16.73768 0.00000
			CHANNELS 3 Xrotation Yrotation Zrotation
			JOINT RightFoot
			{
				OFFSET 0.00000 -15.48883 0.00000
				CHANNELS 3 Xrotation Yrotation Zrotation
				JOINT RightToeBase
				{
					OFFSET 0.00000 -1.60986 6.00809
					CHANNELS 3 Xrotation Yrotation Zrotation
					End Site
					{
						OFFSET 0.00000 0.00000 2.95275
					}
				}
			}
		}
	}
	JOINT Spine
	{
		OFFSET 0.00000 0.03937 0.00000
		CHANNELS 3 Xrotation Yrotation Zrotation
		JOINT Spine1
		{
			OFFSET 0.00000 11.10029 0.00000
			CHANNELS 3 Xrotation Yrotation Zrotation
			JOINT Neck
			{
				OFFSET 0.00000 8.89215 0.00000
				CHANNELS 3 Xrotation Yrotation Zrotation
				JOINT Head
				{
					OFFSET 0.00000 5.25932 0.00000
					CHANNELS 3 Xrotation Yrotation Zrotation
					End Site
					{
						OFFSET 0.00000 4.52755 0.00000
					}
				}
			}
			JOINT LeftShoulder
			{
				OFFSET 0.00000 8.89215 0.00000
				CHANNELS 3 Xrotation Yrotation Zrotation
				JOINT LeftArm
				{
					OFFSET 6.13318 -0.00002 0.00000
					CHANNELS 3 Xrotation Yrotation Zrotation
					JOINT LeftForeArm
					{
						OFFSET 10.77766 -0.00004 0.00000
						CHANNELS 3 Xrotation Yrotation Zrotation
						JOINT LeftHand
						{
							OFFSET 9.97045 -0.00004 0.00000
							CHANNELS 3 Xrotation Yrotation Zrotation
							JOINT LeftHandThumb
							{
								OFFSET 0.00000 0.00000 0.00000
								CHANNELS 3 Xrotation Yrotation Zrotation
								End Site
								{
									OFFSET 0.00000 0.00000 3.93700
								}
							}
							JOINT L_Wrist_End
							{
								OFFSET 3.93700 -0.00001 0.00000
								CHANNELS 3 Xrotation Yrotation Zrotation
							}
						}
					}
				}
			}
			JOINT RightShoulder
			{
				OFFSET 0.00000 8.89215 0.00000
				CHANNELS 3 Xrotation Yrotation Zrotation
				JOINT RightArm
				{
					OFFSET -6.13318 -0.00002 0.00000
					CHANNELS 3 Xrotation Yrotation Zrotation
					JOINT RightForeArm
					{
						OFFSET -10.77766 -0.00004 0.00000
						CHANNELS 3 Xrotation Yrotation Zrotation
						JOINT RightHand
						{
							OFFSET -9.97045 -0.00004 0.00000
							CHANNELS 3 Xrotation Yrotation Zrotation
							JOINT RightHandThumb
							{
								OFFSET 0.00000 0.00000 0.00000
								CHANNELS 3 Xrotation Yrotation Zrotation
								End Site
								{
									OFFSET 0.00000 0.00000 3.93700
								}
							}
							JOINT R_Wrist_End
							{
								OFFSET -3.93700 -0.00001 0.00000
								CHANNELS 3 Xrotation Yrotation Zrotation
							}
						}
					}
				}
			}
		}
	}
}
MOTION
Frames: 12
Frame Time: 0.008333
 16.5753 33.5297 -1.2773 85.0341 -60.8462 93.6772 -9.1378 8.8201 -0.8074 16.4955 0.0000 -0.0000 5.6886 2.9697 -48.4131 -21.6942 0.0000 -0.0000 -11.0676 -19.1112 -14.3188 18.9603 -0.0000 0.0000 -3.3315 10.5525 8.9247 -11.4235 0.0000 -0.0000 -2.9605 -3.6218 -9.6546 -9.4615 4.4974 0.1044 3.9635 48.9994 -0.2146 12.8091 -48.1053 12.8551 -23.4113 -18.5702 4.3090 -54.3129 -17.2754 -42.1678 -179.9970 -86.0176 -179.9968 -36.0033 6.7162 -7.2155 0.0000 -0.0000 0.0000 0.0000 -0.0000 0.0000 -17.4713 13.6463 -14.2466 -49.4319 9.2088 35.0033 -179.9994 70.9733 179.9991 -15.1247 31.5466 -44.6161 -0.0000 -0.0000 -0.0000 -0.0000 -0.0000 -0.0000
 15.4188 34.1857 -1.3412 85.3421 -61.6863 93.4963 -5.5071 7.7610 -0.4733 12.1760 0.0000 0.0000 13.9117 3.3637 -49.6186 -14.8331 -0.0000 -0.0000 -7.0858 -19.2033 -13.3845 14.4886 -0.0000 -0.0000 5.1825 11.6888 9.7263 -6.7254 0.0000 0.0000 -4.0898 -3.2773 -9.3529 -9.3291 4.3344 0.0886 4.9018 49.0049 -0.3999 16.7299 -47.0477 16.1669 -23.6950 -18.4096 5.2949 -53.1502 -15.8412 -42.7526 -179.9972 -85.6579 -179.9970 -35.7183 7.1757 -7.0702 0.0000 0.0000 -0.0000 0.0000 0.0000 -0.0000 -17.1476 13.5425 -14.6990 -48.8032 9.2275 34.9777 -179.9994 71.4789 179.9991 -14.3491 30.4071 -43.3428 -0.0000 -0.0000 0.0000 -0.0000 -0.0000 0.0000
 14.4030 34.8914 -1.3493 85.3853 -61.6529 93.5466 -4.3089 6.2562 -0.6996 10.9109 0.0000 -0.0000 19.7678 5.0679 -49.5371 -6.4575 -0.0000 -0.0000 -5.3361 -17.9230 -13.1731 12.4965 -0.0000 0.0000 11.6819 11.0391 9.1600 -2.6290 0.0000 -0.0000 -5.3192 -3.0719 -9.3081 -9.9905 4.2511 0.0592 6.4706 49.0988 -0.8778 19.4484 -46.3023 18.6359 -23.5187 -18.0863 5.4096 -52.4084 -15.6457 -42.6822 -179.9972 -85.7717 -179.9969 -36.2753 7.5814 -7.2935 -0.0000 0.0000 -0.0000 -0.0000 0.0000 -0.0000 -16.8700 13.2695 -15.0590 -47.9592 9.7254 35.0239 -179.9993 72.1279 179.9991 -15.2363 30.7641 -44.1970 -0.0000 -0.0000 0.0000 -0.0000 -0.0000 0.0000
 13.4852 35.5960 -1.3387 85.9086 -61.6638 94.1285 -4.3796 5.4886 -1.0379 12.5952 -0.0000 0.0000 24.4540 6.2014 -47.8756 1.8768 0.0000 0.0000 -4.8889 -16.2487 -13.3184 13.1271 -0.0000 0.0000 16.3427 9.6181 6.7391 6.3121 0.0000 -0.0000 -6.2723 -3.0243 -9.1885 -10.6114 4.0778 -0.0621 7.8313 49.3972 -1.7110 22.2543 -45.1824 21.2555 -23.8017 -17.5810 5.3417 -51.2224 -15.6699 -41.9720 -179.9970 -85.9309 -179.9968 -36.5253 8.0105 -7.5458 -0.0000 -0.0000 0.0000 -0.0000 -0.0000 0.0000 -16.9623 13.3495 -15.1338 -47.0956 10.5174 35.2623 -179.9993 72.9409 179.9991 -15.6839 30.9955 -44.4471 -0.0000 -0.0000 -0.0000 -0.0000 -0.0000 -0.0000
 12.6397 36.2864 -1.3495 85.8598 -61.7646 94.0811 -5.8582 6.0475 -1.0189 17.7642 -0.0000 0.0000 26.7048 4.2235 -45.9917 -3.0426 0.0000 0.0000 -5.1622 -14.4786 -13.3943 16.4704 -0.0000 0.0000 19.8308 7.8069 4.3733 3.9878 0.0000 0.0000 -6.9013 -3.0701 -9.0844 -11.2284 3.8817 -0.2341 9.6087 49.2331 -1.8203 22.1644 -44.6504 21.3244 -24.1073 -16.9944 4.8968 -50.3582 -16.5654 -41.3122 -179.9965 -86.5214 -179.9963 -36.8217 7.8055 -7.6954 0.0000 -0.0000 0.0000 0.0000 -0.0000 0.0000 -17.8207 13.4520 -14.7884 -45.4670 11.3434 35.1998 -179.9993 73.7418 179.9990 -15.5251 30.9089 -44.0908 0.0000 -0.0000 0.0000 0.0000 -0.0000 0.0000
 11.8976 36.9470 -1.3717 85.6824 -61.9689 93.9335 -7.6749 6.2159 -0.9902 24.0968 -0.0000 0.0000 26.1461 2.8127 -46.8107 -2.8598 -0.0000 -0.0000 -6.0890 -12.2648 -13.4778 22.2658 -0.0000 0.0000 18.8061 5.2364 3.9077 3.0130 -0.0000 -0.0000 -7.1485 -3.1446 -8.9631 -11.7740 3.7401 -0.5864 10.8592 48.6711 -1.3111 21.4230 -44.3013 20.4482 -23.9469 -16.6746 4.0192 -50.2060 -18.1080 -39.8153 -179.9955 -87.3512 -179.9952 -35.6074 7.7986 -7.2998 -0.0000 -0.0000 -0.0000 -0.0000 -0.0000 -0.0000 -17.9965 13.3110 -13.7389 -44.9086 12.7659 34.2779 -179.9992 74.6477 179.9990 -15.4703 30.7271 -43.6540 0.0000 0.0000 0.0000 0.0000 0.0000 0.0000
 11.1845 37.5635 -1.3706 85.2520 -62.6836 93.9116 -9.0622 6.5286 -1.3265 30.9051 -0.0000 0.0000 24.6562 1.3866 -49.1220 -3.3862 -0.0000 -0.0000 -7.0239 -10.9564 -14.0951 28.9286 0.0000 0.0000 16.2898 3.7496 4.7279 2.6136 0.0000 -0.0000 -6.9025 -3.1020 -9.1130 -11.9251 3.7679 -1.1416 11.8186 47.4224 -0.7581 20.2268 -43.5997 19.4027 -23.8797 -16.3115 3.2450 -50.4457 -19.7135 -39.0226 -179.9925 -88.3940 -179.9923 -34.4854 7.4868 -7.2031 -0.0000 0.0000 0.0000 -0.0000 0.0000 0.0000 -15.5715 12.0191 -11.4633 -47.4126 16.1055 31.6483 -179.9992 76.0005 179.9989 -16.0067 30.6243 -43.5459 -0.0000 -0.0000 -0.0000 -0.0000 -0.0000 -0.0000
 10.4882 38.1370 -1.3862 84.3377 -63.7304 93.2728 -10.5062 6.9840 -1.3606 38.3277 0.0000 0.0000 23.9925 -0.1544 -50.9291 -5.7097 -0.0000 -0.0000 -7.7768 -10.2063 -14.5793 35.8311 -0.0000 0.0000 14.5170 3.4961 5.9132 0.2036 0.0000 -0.0000 -6.3626 -3.0756 -9.2308 -11.7239 3.8225 -1.5080 12.5856 46.1810 -0.4069 19.2865 -43.1642 18.6154 -23.5349 -16.3774 2.6828 -50.8380 -20.6712 -38.1810 -179.9859 -89.1443 -179.9857 -33.8519 7.3496 -6.9316 -0.0000 -0.0000 -0.0000 -0.0000 -0.0000 -0.0000 -15.1259 11.5145 -10.5993 -47.5036 17.0552 30.2555 -179.9991 76.3744 179.9989 -16.2847 30.7540 -43.2457 -0.0000 -0.0000 0.0000 -0.0000 -0.0000 0.0000
 9.8029 38.6863 -1.3856 83.1987 -65.0745 92.5528 -11.8123 7.3667 -1.5757 46.0362 0.0000 0.0000 23.7331 -0.8319 -51.7527 -5.8827 0.0000 0.0000 -8.4805 -9.6679 -15.3069 43.0055 -0.0000 0.0000 13.5206 4.4680 5.8175 0.1225 -0.0000 -0.0000 -5.5851 -3.0996 -9.6490 -11.1761 3.7992 -1.3606 13.0037 45.1477 -0.3895 19.1334 -42.9290 18.1458 -23.8916 -16.3554 2.5291 -50.5231 -20.4447 -38.1172 -179.9797 -89.4059 -179.9795 -33.8034 7.2797 -6.7085 -0.0000 0.0000 -0.0000 -0.0000 0.0000 -0.0000 -14.0864 11.0249 -10.1582 -48.1814 17.8911 28.9366 -179.9991 76.4402 179.9989 -16.7504 30.8277 -43.4396 -0.0000 0.0000 -0.0000 -0.0000 0.0000 -0.0000
 9.1574 39.2018 -1.3865 81.9786 -66.2535 91.5592 -13.5785 7.8328 -1.5198 54.1594 -0.0000 0.0000 23.0459 -1.0126 -51.8202 -6.3081 0.0000 -0.0000 -9.4489 -9.0727 -15.8436 50.3526 -0.0000 0.0000 12.6515 5.7791 5.6533 0.2603 -0.0000 0.0000 -5.0445 -3.1359 -9.5693 -10.1017 3.8535 -1.8629 13.0867 44.2108 -0.3606 18.7522 -42.4640 18.0128 -24.2799 -16.5940 3.1383 -50.2083 -19.5536 -38.3888 -179.9765 -89.4879 -179.9762 -34.0848 7.2281 -6.7075 0.0000 0.0000 -0.0000 0.0000 0.0000 -0.0000 -14.1421 10.7900 -10.2098 -48.0018 17.4020 28.6111 -179.9992 76.0131 179.9989 -16.9578 30.9097 -43.5746 0.0000 0.0000 0.0000 0.0000 0.0000 0.0000
 8.6059 39.6989 -1.4117 81.0052 -66.5792 90.5636 -16.5706 8.3825 -1.1033 62.5843 -0.0000 0.0000 21.4090 -0.7915 -51.4330 -6.9628 0.0000 0.0000 -11.5025 -8.2399 -16.0406 57.9597 -0.0000 0.0000 11.4014 6.7719 5.1598 0.1749 -0.0000 0.0000 -4.8859 -3.1895 -9.5426 -9.4678 3.8024 -1.7913 12.9970 44.1401 -0.6590 19.5256 -42.5711 18.7995 -23.8201 -16.5083 3.3332 -50.7115 -19.1658 -38.3880 -179.9439 -89.7851 -179.9437 -34.6361 7.2764 -6.7337 0.0000 0.0000 0.0000 0.0000 0.0000 0.0000 -13.2788 10.6137 -10.4411 -48.6963 16.9948 28.2949 -179.9992 75.6282 179.9989 -17.2829 30.8150 -43.6689 -0.0000 0.0000 0.0000 -0.0000 0.0000 0.0000
 7.9686 40.1325 -1.4233 80.3287 -68.0575 90.0136 -17.9498 9.1857 -0.7780 70.4222 -0.0000 0.0000 18.8074 -0.1336 -50.5892 -7.4066 0.0000 0.0000 -12.1706 -7.5988 -16.4741 65.1377 -0.0000 0.0000 9.6224 7.3951 4.5019 0.1170 0.0000 0.0000 -4.1354 -3.0666 -9.9084 -8.1738 3.8735 -1.1570 13.6809 43.5750 -1.8081 19.5643 -42.2531 19.5060 -24.9851 -16.8091 4.2773 -49.3596 -16.7159 -39.5441 -179.9812 -89.3585 -179.9810 -34.3365 7.2978 -6.4344 -0.0000 -0.0000 -0.0000 -0.0000 -0.0000 -0.0000 -13.2539 10.3811 -11.6084 -48.5571 15.9843 29.1346 -179.9992 75.1771 179.9990 -17.1762 30.7200 -43.6626 0.0000 0.0000 0.0000 0.0000 0.0000 0.0000
